<?xml version="1.0" encoding="UTF-8"?>
<!DOCTYPE svg PUBLIC "-//W3C//DTD SVG 1.1//EN" "http://www.w3.org/Graphics/SVG/1.1/DTD/svg11.dtd">
<!-- Creator: CorelDRAW -->
<svg xmlns="http://www.w3.org/2000/svg" xml:space="preserve" width="32px" height="32px" shape-rendering="geometricPrecision" text-rendering="geometricPrecision" image-rendering="optimizeQuality" fill-rule="evenodd" clip-rule="evenodd"
viewBox="0 0 1.07563 1.07563"
 xmlns:xlink="http://www.w3.org/1999/xlink">
 <g id="Layer_x0020_1">
  <metadata id="CorelCorpID_0Corel-Layer"/>
  <path fill="none" fill-opacity="0.501961" stroke="#333333" stroke-width="0.0672311" stroke-opacity="0.501961" d="M0.302512 1.04202l0.470599 0c0.147907,0 0.268905,-0.120989 0.268905,-0.268905l0 -0.47058c0,-0.147916 -0.120999,-0.268915 -0.268905,-0.268915l-0.470599 0c-0.147897,0 -0.268896,0.120999 -0.268896,0.268915l0 0.47058c0,0.147916 0.120999,0.268905 0.268896,0.268905z"/>
  <g id="_732569568">
   <g>
    <path id="_732570096" fill="#999999" fill-rule="nonzero" d="M0.310934 0.403358l0 -0.0672311 0.453772 0 0 0.0672311 -0.453772 0zm-0.0174652 -0.0840294l0 0 2.85847e-005 0.000867068 5.71693e-005 0.000809899 9.52822e-005 0.000733673 0.000152452 0.000819427 0.000171508 0.00075273 0.000219149 0.00075273 0.000257262 0.000790842 0.000257262 0.000647919 0.000343016 0.000733673 0.000381129 0.00075273 0.000390657 0.000676504 0.000476411 0.000724145 0.000466883 0.000676504 0.000495468 0.000619334 0.000543109 0.000628863 0.00059075 0.000619334 0.000609806 0.00059075 0.000647919 0.000552637 0.000638391 0.000504996 0.00069556 0.000485939 0.000762258 0.000495468 0.000714617 0.000409714 0.000800371 0.000419242 0.000790842 0.000362072 0.000714617 0.000276318 0.000867068 0.000295375 0.000838484 0.000238206 0.000838484 0.000190564 0.000905181 0.000171508 0.000838484 0.00010481 0.000914709 6.66976e-005 0.00096235 2.85847e-005 0 0.0672311 -0.00420195 -0.00010481 -0.00419242 -0.000314431 -0.00419242 -0.000543109 -0.00404949 -0.000724145 -0.00403997 -0.000933766 -0.00392563 -0.00113386 -0.00382082 -0.00128631 -0.00385893 -0.00153404 -0.00366837 -0.00167697 -0.0035445 -0.00181036 -0.00351591 -0.00202951 -0.00331582 -0.00213432 -0.00326818 -0.00231536 -0.0031729 -0.00250592 -0.00301092 -0.00261073 -0.00289658 -0.00276318 -0.00276318 -0.00288705 -0.00262026 -0.00302997 -0.00251545 -0.00319195 -0.00233441 -0.00328724 -0.00215338 -0.00335393 -0.00204857 -0.00355403 -0.00184848 -0.00359214 -0.00169602 -0.00372553 -0.0015531 -0.00392563 -0.00132442 -0.00389704 -0.00115291 -0.00401138 -0.000952822 -0.00412572 -0.000743201 -0.00413525 -0.000552637 -0.00429723 -0.00032396 -0.00429723 -0.00010481 -0.00429723 0 0 0.0658972 0zm-0.0658972 -9.52822e-006l0.0658972 0 0 9.52822e-006 -0.0658972 0 0 -9.52822e-006zm0.0833624 -0.0167983l0 0 -0.00096235 2.85847e-005 -0.000914709 6.66976e-005 -0.000838484 0.00010481 -0.000905181 0.000171508 -0.000838484 0.000190564 -0.000838484 0.000238206 -0.000867068 0.000295375 -0.000714617 0.000276318 -0.000790842 0.000362072 -0.000800371 0.000419242 -0.000714617 0.000409714 -0.000762258 0.000495468 -0.00069556 0.000485939 -0.000638391 0.000504996 -0.000647919 0.000552637 -0.000609806 0.00059075 -0.00059075 0.000619334 -0.000543109 0.000628863 -0.000495468 0.000619334 -0.000466883 0.000676504 -0.000476411 0.000724145 -0.000390657 0.000676504 -0.000381129 0.00075273 -0.000343016 0.000733673 -0.000257262 0.000647919 -0.000257262 0.000790842 -0.000219149 0.00075273 -0.000171508 0.00075273 -0.000152452 0.000819427 -9.52822e-005 0.000733673 -5.71693e-005 0.000809899 -2.85847e-005 0.000867068 -0.0658972 0 0.00010481 -0.00429723 0.00032396 -0.00429723 0.000552637 -0.00429723 0.000743201 -0.00413525 0.000952822 -0.00412572 0.00115291 -0.00401138 0.00132442 -0.00389704 0.0015531 -0.00392563 0.00169602 -0.00372553 0.00184848 -0.00359214 0.00204857 -0.00355403 0.00215338 -0.00335393 0.00233441 -0.00328724 0.00251545 -0.00319195 0.00262026 -0.00302997 0.00276318 -0.00288705 0.00289658 -0.00276318 0.00301092 -0.00261073 0.0031729 -0.00250592 0.00326818 -0.00231536 0.00331582 -0.00213432 0.00351591 -0.00202951 0.0035445 -0.00181036 0.00366837 -0.00167697 0.00385893 -0.00153404 0.00382082 -0.00128631 0.00392563 -0.00113386 0.00403997 -0.000933766 0.00404949 -0.000724145 0.00419242 -0.000543109 0.00419242 -0.000314431 0.00420195 -0.00010481 0 0 0 0.0672311zm0.453772 -0.0672311l0 0.0672311 -0.453772 0 0 -0.0672311 0.453772 0zm0.0174652 0.0840294l0 0 -2.85847e-005 -0.000867068 -5.71693e-005 -0.000809899 -9.52822e-005 -0.000733673 -0.000152452 -0.000819427 -0.000171508 -0.00075273 -0.000219149 -0.00075273 -0.000257262 -0.000790842 -0.000257262 -0.000647919 -0.000343016 -0.000733673 -0.000381129 -0.00075273 -0.000390657 -0.000676504 -0.000476411 -0.000724145 -0.000466883 -0.000676504 -0.000495468 -0.000619334 -0.000543109 -0.000628863 -0.00059075 -0.000619334 -0.000609806 -0.00059075 -0.000647919 -0.000552637 -0.000638391 -0.000504996 -0.00069556 -0.000485939 -0.000762258 -0.000495468 -0.000714617 -0.000409714 -0.000800371 -0.000419242 -0.000790842 -0.000362072 -0.000714617 -0.000276318 -0.000867068 -0.000295375 -0.000838484 -0.000238206 -0.000838484 -0.000190564 -0.000905181 -0.000171508 -0.000838484 -0.00010481 -0.000914709 -6.66976e-005 -0.00096235 -2.85847e-005 0 -0.0672311 0.00420195 0.00010481 0.00419242 0.000314431 0.00419242 0.000543109 0.00404949 0.000724145 0.00403997 0.000933766 0.00392563 0.00113386 0.00382082 0.00128631 0.00385893 0.00153404 0.00366837 0.00167697 0.0035445 0.00181036 0.00351591 0.00202951 0.00331582 0.00213432 0.00326818 0.00231536 0.0031729 0.00250592 0.00301092 0.00261073 0.00289658 0.00276318 0.00276318 0.00288705 0.00262026 0.00302997 0.00251545 0.00319195 0.00233441 0.00328724 0.00215338 0.00335393 0.00204857 0.00355403 0.00184848 0.00359214 0.00169602 0.00372553 0.0015531 0.00392563 0.00132442 0.00389704 0.00115291 0.00401138 0.000952822 0.00412572 0.000743201 0.00413525 0.000552637 0.00429723 0.00032396 0.00429723 0.00010481 0.00429723 0 0 -0.0658972 0zm0.0658972 9.52822e-006l-0.0658972 0 0 -9.52822e-006 0.0658972 0 0 9.52822e-006zm-0.0833624 0.0167983l0 0 0.00096235 -2.85847e-005 0.000914709 -6.66976e-005 0.000838484 -0.00010481 0.000905181 -0.000171508 0.000838484 -0.000190564 0.000838484 -0.000238206 0.000867068 -0.000295375 0.000714617 -0.000276318 0.000790842 -0.000362072 0.000800371 -0.000419242 0.000714617 -0.000409714 0.000762258 -0.000495468 0.00069556 -0.000485939 0.000638391 -0.000504996 0.000647919 -0.000552637 0.000609806 -0.00059075 0.00059075 -0.000619334 0.000543109 -0.000628863 0.000495468 -0.000619334 0.000466883 -0.000676504 0.000476411 -0.000724145 0.000390657 -0.000676504 0.000381129 -0.00075273 0.000343016 -0.000733673 0.000257262 -0.000647919 0.000257262 -0.000790842 0.000219149 -0.00075273 0.000171508 -0.00075273 0.000152452 -0.000819427 9.52822e-005 -0.000733673 5.71693e-005 -0.000809899 2.85847e-005 -0.000867068 0.0658972 0 -0.00010481 0.00429723 -0.00032396 0.00429723 -0.000552637 0.00429723 -0.000743201 0.00413525 -0.000952822 0.00412572 -0.00115291 0.00401138 -0.00132442 0.00389704 -0.0015531 0.00392563 -0.00169602 0.00372553 -0.00184848 0.00359214 -0.00204857 0.00355403 -0.00215338 0.00335393 -0.00233441 0.00328724 -0.00251545 0.00319195 -0.00262026 0.00302997 -0.00276318 0.00288705 -0.00289658 0.00276318 -0.00301092 0.00261073 -0.0031729 0.00250592 -0.00326818 0.00231536 -0.00331582 0.00213432 -0.00351591 0.00202951 -0.0035445 0.00181036 -0.00366837 0.00167697 -0.00385893 0.00153404 -0.00382082 0.00128631 -0.00392563 0.00113386 -0.00403997 0.000933766 -0.00404949 0.000724145 -0.00419242 0.000543109 -0.00419242 0.000314431 -0.00420195 0.00010481 0 0 0 -0.0672311z"/>
   </g>
   <g>
    <path fill="#999999" fill-rule="nonzero" d="M0.512609 0.268886l-0.00173414 -4.76411e-005 -0.00170555 -0.000123867 -0.00167697 -0.000219149 -0.00165791 -0.000295375 -0.00162933 -0.000371601 -0.00159121 -0.000457355 -0.00156263 -0.000524052 -0.00152452 -0.000600278 -0.0014864 -0.000676504 -0.00144829 -0.000743201 -0.00141018 -0.000809899 -0.00136254 -0.000876596 -0.00132442 -0.000933766 -0.00126725 -0.00100046 -0.00121961 -0.00105763 -0.00117197 -0.0011148 -0.00110527 -0.00116244 -0.00105763 -0.00121961 -0.00100046 -0.00126725 -0.000933766 -0.00132442 -0.000876596 -0.00136254 -0.000809899 -0.00141018 -0.000743201 -0.00144829 -0.000676504 -0.0014864 -0.000600278 -0.00152452 -0.000524052 -0.00156263 -0.000457355 -0.00159121 -0.000371601 -0.00162933 -0.000295375 -0.00165791 -0.000219149 -0.00167697 -0.000123867 -0.00170555 -4.76411e-005 -0.00173414 4.76411e-005 -0.00173414 0.000123867 -0.00170555 0.000219149 -0.00167697 0.000295375 -0.00165791 0.000371601 -0.00162933 0.000457355 -0.00159121 0.000524052 -0.00156263 0.000600278 -0.00152452 0.000676504 -0.0014864 0.000743201 -0.00144829 0.000809899 -0.00141018 0.000876596 -0.00136254 0.000933766 -0.00132442 0.00100046 -0.00126725 0.00105763 -0.00121961 0.00110527 -0.00117197 0.00117197 -0.00110527 0.00121961 -0.00105763 0.00126725 -0.00100046 0.00132442 -0.000933766 0.00136254 -0.000876596 0.00141018 -0.000809899 0.00144829 -0.000743201 0.0014864 -0.000676504 0.00152452 -0.000600278 0.00156263 -0.000524052 0.00159121 -0.000457355 0.00162933 -0.000371601 0.00165791 -0.000295375 0.00167697 -0.000219149 0.00170555 -0.000123867 0.00173414 -4.76411e-005 0 0.0672311zm0.0504234 -0.0672311l0 0.0672311 -0.0504234 0 0 -0.0672311 0.0504234 0zm0 0l0.00173414 4.76411e-005 0.00170555 0.000123867 0.00167697 0.000219149 0.00165791 0.000295375 0.00162933 0.000371601 0.00159121 0.000457355 0.00156263 0.000524052 0.00152452 0.000600278 0.0014864 0.000676504 0.00144829 0.000743201 0.00141018 0.000809899 0.00136254 0.000876596 0.00132442 0.000933766 0.00126725 0.00100046 0.00121961 0.00105763 0.00116244 0.00110527 0.0011148 0.00117197 0.00105763 0.00121961 0.00100046 0.00126725 0.000933766 0.00132442 0.000876596 0.00136254 0.000809899 0.00141018 0.000743201 0.00144829 0.000676504 0.0014864 0.000600278 0.00152452 0.000524052 0.00156263 0.000457355 0.00159121 0.000371601 0.00162933 0.000295375 0.00165791 0.000219149 0.00167697 0.000123867 0.00170555 4.76411e-005 0.00173414 -4.76411e-005 0.00173414 -0.000123867 0.00170555 -0.000219149 0.00167697 -0.000295375 0.00165791 -0.000371601 0.00162933 -0.000457355 0.00159121 -0.000524052 0.00156263 -0.000600278 0.00152452 -0.000676504 0.0014864 -0.000743201 0.00144829 -0.000809899 0.00141018 -0.000876596 0.00136254 -0.000933766 0.00132442 -0.00100046 0.00126725 -0.00105763 0.00121961 -0.0011148 0.00116244 -0.00116244 0.0011148 -0.00121961 0.00105763 -0.00126725 0.00100046 -0.00132442 0.000933766 -0.00136254 0.000876596 -0.00141018 0.000809899 -0.00144829 0.000743201 -0.0014864 0.000676504 -0.00152452 0.000600278 -0.00156263 0.000524052 -0.00159121 0.000457355 -0.00162933 0.000371601 -0.00165791 0.000295375 -0.00167697 0.000219149 -0.00170555 0.000123867 -0.00173414 4.76411e-005 0 -0.0672311z"/>
   </g>
   <g>
    <path fill="#999999" fill-rule="nonzero" d="M0.29001 0.388961l-7.62258e-005 -0.00172461 9.52822e-006 -0.00171508 8.5754e-005 -0.00169602 0.000181036 -0.00166744 0.000257262 -0.00164838 0.000343016 -0.00162933 0.000419242 -0.00159121 0.000485939 -0.00156263 0.000571693 -0.00153404 0.000628863 -0.00150546 0.000714617 -0.00145782 0.000771786 -0.00141971 0.000838484 -0.00138159 0.000905181 -0.00134348 0.000971879 -0.00128631 0.00102905 -0.0012482 0.00108622 -0.00119103 0.00113386 -0.00114339 0.00120056 -0.00108622 0.0012482 -0.00102905 0.00129584 -0.000971879 0.00134348 -0.000905181 0.00139112 -0.000838484 0.00143876 -0.000781314 0.0014864 -0.000705088 0.00151499 -0.000638391 0.00156263 -0.000571693 0.00159121 -0.000485939 0.00162933 -0.000409714 0.00166744 -0.000333488 0.0016865 -0.000257262 0.00172461 -0.00016198 0.00172461 -7.62258e-005 0.00171508 9.52822e-006 0.00169602 8.5754e-005 0.00166744 0.000181036 0.00164838 0.000257262 0.00162933 0.000343016 0.00159121 0.000419242 0.00156263 0.000485939 0.00153404 0.000571693 0.00150546 0.000628863 0.00145782 0.000714617 0.00141971 0.000771786 0.00138159 0.000838484 0.00134348 0.000905181 0.00128631 0.000971879 0.0012482 0.00102905 0.00119103 0.00108622 0.00114339 0.00113386 0.00108622 0.00120056 0.00102905 0.0012482 0.000971879 0.00129584 0.000905181 0.00134348 0.000838484 0.00139112 0.000781314 0.00143876 0.000705088 0.0014864 0.000638391 0.00151499 0.000571693 0.00156263 0.000485939 0.00159121 0.000409714 0.00162933 0.000333488 0.00166744 0.000257262 0.0016865 0.00016198 0.00172461 -0.0670596 0.00478317zm0.0922713 0.348152l-0.0670596 0.00478317 -0.0252117 -0.352935 0.0670596 -0.00478317 0.0252117 0.352935zm0.0673074 0.136835l0 0 -0.00687938 -0.000181036 -0.00680315 -0.000524052 -0.00672692 -0.000867068 -0.006584 -0.00121008 -0.00645061 -0.00152452 -0.00636485 -0.001858 -0.00619334 -0.00216291 -0.00605042 -0.00245828 -0.00588844 -0.00276318 -0.00568835 -0.00301092 -0.00551684 -0.00327771 -0.0053358 -0.0035445 -0.00517382 -0.00380176 -0.00490703 -0.00399233 -0.00474505 -0.00424006 -0.00453543 -0.00445921 -0.0042877 -0.00462119 -0.00409714 -0.00483081 -0.00387799 -0.00502137 -0.00363978 -0.00519288 -0.0034111 -0.0053358 -0.0031729 -0.00548826 -0.00295375 -0.00565976 -0.00269649 -0.00579316 -0.00245828 -0.00591703 -0.00219149 -0.00602184 -0.00195329 -0.00613617 -0.0016865 -0.00625051 -0.00143876 -0.00635532 -0.00116244 -0.00644108 -0.000886125 -0.00652683 -0.000609806 -0.006584 0.0670596 -0.00478317 0.000343016 0.00372553 0.000504996 0.00364931 0.000647919 0.00360167 0.000790842 0.00353497 0.000943294 0.00346827 0.00107669 0.00339205 0.00121961 0.00333488 0.00133395 0.00323007 0.00145782 0.00312526 0.00158168 0.00302997 0.00170555 0.00295375 0.00181036 0.00283941 0.0019247 0.0027346 0.00201045 0.0026012 0.00211527 0.00250592 0.0022296 0.00239158 0.00226772 0.00224866 0.00238206 0.00210574 0.00248687 0.00202951 0.00248687 0.00183895 0.00261073 0.00171508 0.00267743 0.00160074 0.00277271 0.00146735 0.0028013 0.00131489 0.00286799 0.00116244 0.00295375 0.00103858 0.00299186 0.000867068 0.00313479 0.000743201 0.0031729 0.000581222 0.0032396 0.00042877 0.00333488 0.000257262 0.00343016 8.5754e-005 0 0 0 0.0672311zm0.176463 -0.0672311l0 0.0672311 -0.176463 0 0 -0.0672311 0.176463 0zm0.134367 -0.0648205l0 9.52822e-006 -0.000609806 0.00657447 -0.000886125 0.00652683 -0.00116244 0.00645061 -0.00143876 0.00635532 -0.0016865 0.00624099 -0.00195329 0.00615523 -0.00220102 0.00602184 -0.00245828 0.00592655 -0.00269649 0.0057741 -0.00293469 0.00563118 -0.00319195 0.00552637 -0.0034111 0.0053358 -0.00363025 0.00518335 -0.00387799 0.00502137 -0.00409714 0.00483081 -0.00429723 0.00463072 -0.00453543 0.00444968 -0.00474505 0.00424006 -0.00491656 0.00399233 -0.00514524 0.00379223 -0.00534533 0.00355403 -0.00552637 0.00327771 -0.00568835 0.00302045 -0.00587891 0.00274413 -0.00605042 0.00246781 -0.00622193 0.00216291 -0.00633627 0.00184848 -0.00645061 0.00152452 -0.006584 0.00121008 -0.00672692 0.000867068 -0.00680315 0.000524052 -0.00687938 0.000181036 0 -0.0672311 0.00343016 -8.5754e-005 0.00333488 -0.000257262 0.0032396 -0.00042877 0.0031729 -0.000581222 0.00313479 -0.000743201 0.00302045 -0.000876596 0.00292516 -0.00101952 0.00286799 -0.00117197 0.00281083 -0.00131489 0.00275366 -0.00145782 0.00268696 -0.00160074 0.00258215 -0.00170555 0.00253451 -0.00186753 0.00247734 -0.00201045 0.002363 -0.00210574 0.00228677 -0.00225819 0.00222008 -0.00238206 0.00211527 -0.00250592 0.00201045 -0.0026012 0.00191517 -0.00272507 0.00182942 -0.00285847 0.0016865 -0.00291564 0.00158168 -0.00305856 0.00147687 -0.00314431 0.00133395 -0.00322054 0.00121008 -0.00331582 0.00107669 -0.00339205 0.000943294 -0.0034778 0.000790842 -0.00353497 0.000647919 -0.00359214 0.000504996 -0.00366837 0.000343016 -0.00373506 0 9.52822e-006 0.0670596 0.00478317zm-0.0670596 -0.0047927l0.000171508 -0.00172461 0.000247734 -0.0016865 0.000333488 -0.00166744 0.000409714 -0.00162933 0.000495468 -0.00159121 0.000562165 -0.00156263 0.000638391 -0.00151499 0.000714617 -0.0014864 0.000771786 -0.00143876 0.000848012 -0.00139112 0.000905181 -0.00134348 0.000971879 -0.00129584 0.00102905 -0.0012482 0.00108622 -0.00120056 0.00114339 -0.00113386 0.00119103 -0.00108622 0.0012482 -0.00102905 0.00128631 -0.00096235 0.00134348 -0.000905181 0.00138159 -0.000848012 0.00141971 -0.000771786 0.00145782 -0.000705088 0.00150546 -0.000638391 0.00153404 -0.000562165 0.00156263 -0.000495468 0.00159121 -0.000419242 0.00162933 -0.000333488 0.00164838 -0.000257262 0.00166744 -0.000181036 0.00169602 -9.52822e-005 0.00171508 0 0.00172461 7.62258e-005 0.00172461 0.000171508 0.0016865 0.000247734 0.00166744 0.000333488 0.00162933 0.000409714 0.00159121 0.000495468 0.00156263 0.000562165 0.00151499 0.000638391 0.0014864 0.000714617 0.00143876 0.000771786 0.00139112 0.000848012 0.00134348 0.000905181 0.00129584 0.000971879 0.0012482 0.00102905 0.00120056 0.00108622 0.00113386 0.00114339 0.00108622 0.00119103 0.00102905 0.0012482 0.00096235 0.00128631 0.000905181 0.00134348 0.000848012 0.00138159 0.000771786 0.00141971 0.000705088 0.00145782 0.000638391 0.00150546 0.000562165 0.00153404 0.000495468 0.00156263 0.000419242 0.00159121 0.000333488 0.00162933 0.000257262 0.00164838 0.000181036 0.00166744 9.52822e-005 0.00169602 0 0.00171508 -7.62258e-005 0.00172461 -0.0670596 -0.00480222zm0.0252117 -0.352925l0.0670596 0.00478317 -0.0252117 0.352935 -0.0670596 -0.00478317 0.0252117 -0.352935zm0 0l0.00016198 -0.00172461 0.000257262 -0.0016865 0.000333488 -0.00166744 0.000409714 -0.00162933 0.000485939 -0.00159121 0.000571693 -0.00156263 0.000638391 -0.00151499 0.000705088 -0.0014864 0.000781314 -0.00143876 0.000838484 -0.00139112 0.000905181 -0.00134348 0.000971879 -0.00129584 0.00102905 -0.0012482 0.00108622 -0.00120056 0.00114339 -0.00113386 0.00119103 -0.00108622 0.0012482 -0.00102905 0.00128631 -0.000971879 0.00134348 -0.000905181 0.00138159 -0.000838484 0.00141971 -0.000771786 0.00145782 -0.000714617 0.00150546 -0.000628863 0.00153404 -0.000571693 0.00156263 -0.000485939 0.00159121 -0.000419242 0.00162933 -0.000343016 0.00164838 -0.000257262 0.00166744 -0.000181036 0.00169602 -8.5754e-005 0.00171508 -9.52822e-006 0.00172461 7.62258e-005 0.00172461 0.00016198 0.0016865 0.000257262 0.00166744 0.000333488 0.00162933 0.000409714 0.00159121 0.000485939 0.00156263 0.000571693 0.00151499 0.000638391 0.0014864 0.000705088 0.00143876 0.000781314 0.00139112 0.000838484 0.00134348 0.000905181 0.00129584 0.000971879 0.0012482 0.00102905 0.00120056 0.00108622 0.00113386 0.00114339 0.00108622 0.00119103 0.00102905 0.0012482 0.000971879 0.00128631 0.000905181 0.00134348 0.000838484 0.00138159 0.000771786 0.00141971 0.000714617 0.00145782 0.000628863 0.00150546 0.000571693 0.00153404 0.000485939 0.00156263 0.000419242 0.00159121 0.000343016 0.00162933 0.000257262 0.00164838 0.000181036 0.00166744 8.5754e-005 0.00169602 9.52822e-006 0.00171508 -7.62258e-005 0.00172461 -0.0670596 -0.00478317z"/>
   </g>
   <g>
    <path fill="#999999" fill-rule="nonzero" d="M0.441614 0.488388l-9.52822e-006 -0.00173414 8.5754e-005 -0.00171508 0.00016198 -0.0016865 0.000247734 -0.00166744 0.000333488 -0.00163885 0.000400185 -0.00161027 0.000485939 -0.00158168 0.000552637 -0.00154357 0.000628863 -0.00151499 0.000705088 -0.00147687 0.000771786 -0.00142923 0.000828955 -0.00139112 0.000895653 -0.00135301 0.00096235 -0.00129584 0.00101952 -0.00125773 0.00107669 -0.00120056 0.00113386 -0.00115291 0.00119103 -0.00109575 0.00123867 -0.00102905 0.00129584 -0.000981407 0.00133395 -0.000914709 0.00138159 -0.00085754 0.00142923 -0.000781314 0.00146735 -0.000714617 0.00150546 -0.000647919 0.00154357 -0.000581222 0.00158168 -0.000495468 0.0016198 -0.00042877 0.00163885 -0.000343016 0.00167697 -0.000257262 0.00170555 -0.000181036 0.00172461 -9.52822e-005 0.00173414 -9.52822e-006 0.00170555 8.5754e-005 0.0016865 0.00016198 0.00166744 0.000247734 0.00162933 0.000333488 0.00161027 0.000409714 0.00158168 0.000476411 0.00154357 0.000562165 0.00150546 0.000628863 0.00146735 0.000705088 0.00142923 0.000771786 0.00139112 0.000838484 0.00134348 0.000895653 0.00130537 0.00096235 0.0012482 0.00101952 0.00120056 0.00108622 0.00114339 0.00113386 0.00109575 0.00119103 0.00102905 0.0012482 0.000981407 0.00128631 0.000905181 0.00134348 0.00085754 0.00138159 0.000781314 0.00143876 0.000714617 0.00146735 0.000647919 0.00151499 0.000571693 0.00154357 0.000504996 0.00158168 0.000419242 0.0016198 0.000343016 0.00164838 0.000257262 0.00167697 0.000181036 0.00170555 9.52822e-005 0.00173414 -0.067193 0.00196281zm0.0745583 0.250135l-0.067193 0.00196281 -0.00736532 -0.252098 0.067193 -0.00196281 0.00736532 0.252098zm0 0l9.52822e-006 0.00173414 -8.5754e-005 0.00171508 -0.00016198 0.0016865 -0.000247734 0.00166744 -0.000333488 0.00163885 -0.000400185 0.00161027 -0.000485939 0.00158168 -0.000552637 0.00154357 -0.000628863 0.00151499 -0.000705088 0.00147687 -0.000771786 0.00142923 -0.000828955 0.00139112 -0.000895653 0.00135301 -0.00096235 0.00129584 -0.00101952 0.00125773 -0.00107669 0.00120056 -0.00113386 0.00115291 -0.00119103 0.00109575 -0.00123867 0.00102905 -0.00129584 0.000981407 -0.00133395 0.000914709 -0.00138159 0.00085754 -0.00142923 0.000781314 -0.00146735 0.000714617 -0.00150546 0.000647919 -0.00154357 0.000581222 -0.00158168 0.000495468 -0.0016198 0.00042877 -0.00163885 0.000343016 -0.00167697 0.000257262 -0.00170555 0.000181036 -0.00172461 9.52822e-005 -0.00173414 9.52822e-006 -0.00170555 -8.5754e-005 -0.0016865 -0.00016198 -0.00166744 -0.000247734 -0.00162933 -0.000333488 -0.00161027 -0.000409714 -0.00158168 -0.000476411 -0.00154357 -0.000562165 -0.00150546 -0.000628863 -0.00146735 -0.000705088 -0.00142923 -0.000771786 -0.00139112 -0.000838484 -0.00134348 -0.000895653 -0.00130537 -0.00096235 -0.0012482 -0.00101952 -0.00120056 -0.00108622 -0.00114339 -0.00113386 -0.00109575 -0.00119103 -0.00102905 -0.0012482 -0.000981407 -0.00128631 -0.000905181 -0.00134348 -0.00085754 -0.00138159 -0.000781314 -0.00143876 -0.000714617 -0.00146735 -0.000647919 -0.00151499 -0.000571693 -0.00154357 -0.000504996 -0.00158168 -0.000419242 -0.0016198 -0.000343016 -0.00164838 -0.000257262 -0.00167697 -0.000181036 -0.00170555 -9.52822e-005 -0.00173414 0.067193 -0.00196281zm0.110489 0.00196281l-9.52822e-005 0.00173414 -0.000181036 0.00170555 -0.000257262 0.00167697 -0.000343016 0.00164838 -0.000419242 0.0016198 -0.000504996 0.00158168 -0.000571693 0.00154357 -0.000647919 0.00151499 -0.000714617 0.00146735 -0.000781314 0.00143876 -0.00085754 0.00138159 -0.000905181 0.00134348 -0.000981407 0.00128631 -0.00102905 0.0012482 -0.00109575 0.00119103 -0.00114339 0.00113386 -0.00120056 0.00108622 -0.0012482 0.00101952 -0.00130537 0.00096235 -0.00134348 0.000895653 -0.00139112 0.000838484 -0.00142923 0.000771786 -0.00146735 0.000705088 -0.00150546 0.000628863 -0.00154357 0.000562165 -0.00158168 0.000476411 -0.00161027 0.000409714 -0.00162933 0.000333488 -0.00166744 0.000247734 -0.0016865 0.00016198 -0.00170555 8.5754e-005 -0.00173414 -9.52822e-006 -0.00172461 -9.52822e-005 -0.00170555 -0.000181036 -0.00167697 -0.000257262 -0.00163885 -0.000343016 -0.0016198 -0.00042877 -0.00158168 -0.000495468 -0.00154357 -0.000581222 -0.00150546 -0.000647919 -0.00146735 -0.000714617 -0.00142923 -0.000781314 -0.00138159 -0.00085754 -0.00133395 -0.000914709 -0.00129584 -0.000981407 -0.00123867 -0.00102905 -0.00119103 -0.00109575 -0.00113386 -0.00115291 -0.00107669 -0.00120056 -0.00101952 -0.00125773 -0.00096235 -0.00129584 -0.000895653 -0.00135301 -0.000828955 -0.00139112 -0.000771786 -0.00142923 -0.000705088 -0.00147687 -0.000628863 -0.00151499 -0.000552637 -0.00154357 -0.000485939 -0.00158168 -0.000400185 -0.00161027 -0.000333488 -0.00163885 -0.000247734 -0.00166744 -0.00016198 -0.0016865 -8.5754e-005 -0.00171508 9.52822e-006 -0.00173414 0.067193 0.00196281zm-0.0598277 -0.254061l0.067193 0.00196281 -0.00736532 0.252098 -0.067193 -0.00196281 0.00736532 -0.252098zm0 0l9.52822e-005 -0.00173414 0.000181036 -0.00170555 0.000257262 -0.00167697 0.000343016 -0.00164838 0.000419242 -0.0016198 0.000504996 -0.00158168 0.000571693 -0.00154357 0.000647919 -0.00151499 0.000714617 -0.00146735 0.000781314 -0.00143876 0.00085754 -0.00138159 0.000905181 -0.00134348 0.000981407 -0.00128631 0.00102905 -0.0012482 0.00109575 -0.00119103 0.00114339 -0.00113386 0.00120056 -0.00108622 0.0012482 -0.00101952 0.00130537 -0.00096235 0.00134348 -0.000895653 0.00139112 -0.000838484 0.00142923 -0.000771786 0.00146735 -0.000705088 0.00150546 -0.000628863 0.00154357 -0.000562165 0.00158168 -0.000476411 0.00161027 -0.000409714 0.00162933 -0.000333488 0.00166744 -0.000247734 0.0016865 -0.00016198 0.00170555 -8.5754e-005 0.00173414 9.52822e-006 0.00172461 9.52822e-005 0.00170555 0.000181036 0.00167697 0.000257262 0.00163885 0.000343016 0.0016198 0.00042877 0.00158168 0.000495468 0.00154357 0.000581222 0.00150546 0.000647919 0.00146735 0.000714617 0.00142923 0.000781314 0.00138159 0.00085754 0.00133395 0.000914709 0.00129584 0.000981407 0.00123867 0.00102905 0.00119103 0.00109575 0.00113386 0.00115291 0.00107669 0.00120056 0.00101952 0.00125773 0.00096235 0.00129584 0.000895653 0.00135301 0.000828955 0.00139112 0.000771786 0.00142923 0.000705088 0.00147687 0.000628863 0.00151499 0.000552637 0.00154357 0.000485939 0.00158168 0.000400185 0.00161027 0.000333488 0.00163885 0.000247734 0.00166744 0.00016198 0.0016865 8.5754e-005 0.00171508 -9.52822e-006 0.00173414 -0.067193 -0.00196281z"/>
   </g>
  </g>
 </g>
</svg>
